<?xml version="1.0" encoding="UTF-8"?>
<!-- Created with Inkscape (http://www.inkscape.org/) -->
<svg width="117.67mm" height="117.67mm" version="1.1" viewBox="0 0 117.67 117.67" xmlns="http://www.w3.org/2000/svg">
 <g transform="translate(-37.867 -44.322)">
  <text x="84.086967" y="103.87656" font-family="'Noto Sans'" font-size="31.75px" letter-spacing="0px" stroke-width=".26458" word-spacing="0px" style="line-height:0" xml:space="preserve"><tspan x="84.086967" y="103.87656" font-family="'Noto Color Emoji'" stroke-width=".26458"/></text>
  <g stroke-linecap="round" stroke-linejoin="round">
   <circle cx="96.701" cy="103.16" r="58.834" fill="#ffd343" stroke-width=".565"/>
   <circle cx="75.05" cy="86.101" r="15.699" fill="#5576ab" stroke-width=".43571"/>
   <circle cx="121.19" cy="85.749" r="15.699" fill="#5576ab" stroke-width=".43571"/>
  </g>
  <path d="m57.353 74.498c3.0021-5.3773 33.248-14.114 37.765 8.6914 5.8432-10.547 20.845-24.762 43.505-8.969" fill="none" stroke="#f00" stroke-width="1.765"/>
  <path d="m62.84 137.22c6.0392-9.6259 21.755-14.607 35.649-16.866 12.321 1.576 31.717 8.5121 36.774 17.49" fill="none" stroke="#f00" stroke-width="1.565"/>
  <g transform="rotate(192.91 -4.0794 2.1924)" fill="#5576ab" stroke-width=".26458" aria-label="Y">
   <path d="m-132.23-99.133-7.3342-13.399 1.279-1.376 1.8007 1.376 5.207 9.7155 0.53975 1.9368h0.0318l0.5715-2.0002 5.288-9.7195 1.4025-1.5342 1.4232 1.5342-7.2708 13.367 0.0679 7.8585c-0.87893 0.4298-1.717 0.57842-2.7032 0.99977z" fill="#5576ab"/>
  </g>
  <g transform="translate(0 -2.6458)" fill="#5576ab" stroke="#5576ab" stroke-width=".26458" aria-label="P">
   <path d="m102.81 95.626c1.401 0.59129 2.9527 1.4644 3.6338 2.8434 1.1336 2.2952 1.3796 5.3055 0.0823 7.6791-1.317 2.0276-3.8679 2.5789-6.105 2.881-1.5577 0.21076-3.1426 0.22374-4.7029 0.0318v8.4455c-0.88132 0.36751-2.8258 0.59268-2.6239-0.87299 0.08502-5.6944-0.44511-11.394-0.05357-17.084 0.15698-1.2504 0.06875-2.808 0.99616-3.6741 1.0691-0.99835 2.8419-0.81107 4.304-0.85609 1.5026-0.04627 3.0681 0.01471 4.4691 0.606zm-6.7545 11.048c2.1242 0.17443 4.5143 0.39999 6.3545-0.89924 1.6865-1.2055 2.0958-3.5621 1.5892-5.4666-0.29593-1.2576-1.1565-2.2579-2.2963-2.7598-1.2677-0.65666-3.2314-0.70317-4.2496 0.48215-1.2616 1.4315-1.0529 3.4633-1.3221 5.2257-0.10937 1.137 0.03376 2.2814-0.07565 3.4178z"/>
  </g>
 </g>
</svg>
